# Blender v2.79 (sub 0) OBJ File: 'beam.obj'
# www.blender.org
mtllib beam.mtl
o Cone.001
v 0.000000 0.500000 0.500000
v 0.000000 -1.500000 -0.000000
v 0.500000 0.500000 0.000000
v 0.000000 0.500000 -0.500000
v -0.500000 0.500000 0.000000
v 0.000000 1.500000 0.000000
vn 0.6963 -0.1741 0.6963
vn 0.6963 -0.1741 -0.6963
vn -0.6963 -0.1741 -0.6963
vn -0.6963 -0.1741 0.6963
vn 0.6667 0.3333 -0.6667
vn 0.6667 0.3333 0.6667
vn -0.6667 0.3333 0.6667
vn -0.6667 0.3333 -0.6667
usemtl None
s 1
f 1//1 2//1 3//1
f 3//2 2//2 4//2
f 4//3 2//3 5//3
f 5//4 2//4 1//4
f 4//5 6//5 3//5
f 3//6 6//6 1//6
f 1//7 6//7 5//7
f 5//8 6//8 4//8
