# Blender v2.79 (sub 0) OBJ File: ''
# www.blender.org
mtllib bean.mtl
o Sphere_Sphere.002
v -0.216252 0.021996 0.032073
v -0.056185 0.147807 -0.190326
v -0.198081 -0.057985 0.098979
v 0.050005 0.147807 0.182793
v 0.178831 -0.098055 0.133915
v -0.117134 -0.133866 -0.200587
v 0.151423 0.256085 0.035686
v -0.224645 -0.129083 -0.053944
v 0.134894 -0.183258 -0.192593
v 0.178475 0.147248 -0.069079
v 0.101786 0.196118 -0.152023
v 0.211222 0.022381 -0.025029
v -0.152135 0.247201 0.057532
v -0.073924 0.373476 0.070394
v 0.009690 0.335895 0.122443
v -0.035646 0.131977 0.187646
v 0.109360 0.356802 -0.048772
v -0.021837 -0.764265 -0.181259
v 0.021395 0.134170 -0.199344
v -0.193279 0.160575 -0.024468
v 0.008343 -0.114551 0.220896
v 0.218655 -0.197442 -0.082362
v -0.089985 0.218319 0.152773
v -0.178360 -0.764265 0.003377
v 0.117172 -0.133866 0.190427
v -0.184477 -0.113446 -0.143383
v -0.113184 0.346797 -0.041204
v 0.204492 0.007411 0.061530
v 0.018389 -0.114235 -0.226462
v 0.095697 0.036751 -0.193177
v 0.125999 0.181491 0.122496
v -0.011053 0.435406 -0.026328
v 0.041599 -0.934295 -0.154918
v -0.152791 -0.764265 -0.095201
v -0.156073 0.131977 -0.115903
v 0.059045 0.396057 0.047275
v 0.174402 -0.764265 -0.022514
v -0.141213 -0.062166 0.171259
v 0.117601 -0.764265 0.123528
v 0.096040 -0.934295 -0.126311
v -0.080104 0.269131 -0.144639
v -0.083199 -0.113814 0.211318
v 0.004866 0.334117 -0.125104
v 0.172238 -0.046672 -0.136443
v -0.144852 -0.764265 0.099548
v 0.226259 -0.183258 0.028522
v -0.116898 0.203886 -0.140321
v -0.103887 0.114144 -0.171560
v -0.082018 0.180093 -0.173908
v -0.055054 0.364061 -0.093445
v -0.020134 0.114692 -0.204189
v -0.066554 0.406306 -0.036606
v -0.090897 0.330892 -0.099627
v -0.033183 0.020930 -0.213018
v -0.016337 0.174104 -0.191532
v -0.019326 0.146353 -0.198621
v -0.064135 0.235595 -0.164200
v 0.018354 0.017521 -0.218706
v -0.045089 0.327722 -0.131199
v 0.059022 0.055267 -0.206323
v 0.137446 -0.024297 -0.172966
v 0.057344 0.118589 -0.195250
v 0.008743 0.248432 -0.166503
v 0.132612 0.041718 -0.165450
v 0.095453 0.134076 -0.175811
v 0.072961 0.343788 -0.092043
v 0.141822 0.189451 -0.113467
v 0.179252 0.069342 -0.102542
v 0.203459 -0.027890 -0.075979
v 0.000398 0.403136 -0.077934
v 0.066730 0.263919 -0.141309
v 0.202935 -0.117199 -0.101815
v 0.201658 0.054944 -0.058452
v 0.216122 -0.014369 0.017847
v 0.223764 -0.096390 -0.001943
v 0.057798 0.408807 -0.049603
v 0.137933 0.307357 -0.020918
v 0.207187 0.051646 0.018003
v 0.218993 -0.100133 0.053873
v 0.143983 0.257373 -0.066550
v 0.192414 0.118266 -0.043914
v 0.212755 0.019985 0.017195
v 0.096850 0.382047 -0.007547
v 0.129167 0.330131 -0.017342
v -0.213132 -0.332650 0.047937
v 0.008879 -1.061818 -0.145943
v 0.198482 -0.078832 0.101599
v -0.220020 -0.350424 -0.025281
v 0.083753 0.398970 -0.015695
v -0.207045 -0.350424 -0.084289
v 0.153146 -0.149609 0.166974
v 0.183701 0.141733 0.042268
v 0.192447 -0.010124 0.098411
v 0.147884 0.213003 0.083836
v 0.145382 -0.079797 0.167126
v 0.107209 -1.061818 -0.094274
v 0.060898 -1.104325 -0.125539
v 0.155439 0.185252 0.085289
v 0.147819 -0.114151 0.169540
v 0.131482 0.263529 0.079041
v 0.113760 0.339945 0.032139
v 0.140758 0.240754 0.080937
v 0.091734 0.126522 0.167558
v 0.139086 -1.061818 0.008202
v 0.057894 -0.119379 0.212141
v 0.083382 0.185934 0.157317
v -0.107860 -0.135624 0.201898
v -0.003254 -0.346712 -0.223761
v 0.094963 0.321296 0.082852
v -0.060519 -0.351620 -0.214822
v 0.011936 0.114144 0.195615
v -0.036887 -0.114366 0.219638
v -0.174141 -0.121667 0.146366
v 0.031809 0.376820 0.094726
v 0.008139 0.173555 0.182958
v 0.045876 0.359897 0.098848
v 0.041896 0.252286 0.153001
v 0.118219 -1.061818 0.067262
v 0.011128 0.145804 0.190047
v -0.110972 -0.065812 0.194783
v 0.011359 -1.104325 0.133033
v -0.008433 0.413560 0.062209
v -0.062618 0.191183 0.170765
v -0.095808 0.061650 0.180550
v -0.211962 -0.152261 -0.101427
v 0.067570 -1.061818 0.118631
v 0.020391 0.393743 0.085535
v -0.011757 0.248328 0.159146
v -0.097192 0.029989 0.186004
v 0.029645 0.429042 0.004047
v -0.174293 -0.051855 0.138602
v -0.157638 -0.153457 -0.175648
v -0.176706 -0.086209 0.141039
v 0.202041 -0.367514 -0.091410
v -0.026241 0.388098 0.091409
v 0.179206 -0.329822 -0.125590
v -0.168085 0.014160 0.132174
v 0.218567 -0.363968 -0.001228
v -0.085797 0.279309 0.126856
v 0.138030 -1.019310 -0.047665
v -0.171451 -0.017501 0.136683
v -0.111065 0.309304 0.084475
v -0.214267 -0.030814 0.064608
v -0.097188 -1.019310 0.108415
v -0.114734 0.286529 0.093202
v -0.206072 0.035200 0.061044
v 0.086988 -0.166002 -0.214784
v -0.208817 0.089840 0.009910
v -0.225508 -0.048589 -0.017956
v 0.163010 -0.149112 -0.164832
v -0.189282 0.143158 0.048804
v -0.227709 -0.082943 -0.006418
v -0.102502 0.373901 0.021585
v -0.180130 0.205553 0.012477
v -0.187219 0.177802 0.015466
v 0.124491 -0.351620 0.175868
v 0.198005 -0.152658 -0.118600
v -0.111779 0.332079 0.065034
v -0.057417 0.423397 0.012791
v -0.189573 0.117336 -0.067976
v -0.204848 -0.082449 -0.104539
v 0.227492 -0.186804 -0.033671
v -0.093279 0.390824 0.014687
v -0.035551 0.433818 0.022077
v -0.133392 0.325409 0.014386
v -0.139893 -1.019310 0.041749
v -0.176426 0.176747 -0.066641
v 0.207864 -0.161958 0.088938
v -0.142125 -1.019310 -0.041926
v -0.014574 -0.389299 0.209364
v -0.184119 0.148996 -0.066592
v -0.162116 0.258203 -0.030366
v -0.149874 -0.083645 -0.175800
v -0.152311 -0.117999 -0.178213
v -0.157278 -0.333695 0.151233
v -0.088992 -0.346607 0.200644
v -0.044498 -1.061818 -0.140305
v -0.097895 -1.061818 -0.107560
v -0.121246 0.256036 -0.110669
v -0.102094 0.160397 -0.165810
v -0.083723 0.011248 -0.200307
v -0.040608 0.397522 -0.071033
v -0.063971 0.348961 -0.109571
v -0.010352 0.114692 -0.205084
v -0.013717 0.049425 -0.214169
v -0.027301 0.251123 -0.168311
v -0.026119 0.174104 -0.190637
v 0.045810 0.007746 -0.216249
v 0.068108 0.086928 -0.197787
v 0.045501 0.236636 -0.162650
v 0.069774 0.154261 -0.183197
v 0.145940 -0.024297 -0.166112
v 0.121147 0.107762 -0.161719
v 0.046828 0.388511 -0.075346
v 0.112391 0.264670 -0.108358
v 0.153287 0.132373 -0.119839
v 0.197283 0.029181 -0.079705
v 0.058604 0.417668 -0.024131
v 0.215142 -0.014369 0.028718
v 0.221505 -0.076678 0.023787
v 0.139133 0.307357 -0.014466
v 0.153450 0.257395 -0.037001
v 0.191850 0.139881 -0.000778
v 0.208167 0.051646 0.007133
v 0.210198 -0.121087 0.083742
v 0.094177 0.382047 -0.016139
v 0.115476 0.355506 -0.000577
v 0.174421 0.136516 0.074134
v 0.144248 -0.149609 0.174397
v 0.143622 0.213003 0.091021
v 0.152575 0.213003 0.075205
v 0.142869 -0.004156 0.157282
v 0.154279 -0.079797 0.159704
v -0.108237 -0.258162 0.199125
v 0.113817 0.318383 0.063408
v 0.135745 0.263529 0.071856
v -0.178454 -0.251959 0.137494
v 0.074454 0.327251 0.102486
v 0.068543 0.246846 0.144592
v 0.092077 0.185934 0.152747
v -0.225741 -0.259394 0.017002
v 0.002154 0.114144 0.196510
v -0.006882 0.012481 0.211163
v -0.202800 -0.265557 -0.110427
v 0.043406 0.376820 0.088712
v 0.014340 0.231222 0.165282
v -0.118123 -0.135624 0.196518
v -0.003492 0.433416 0.029110
v -0.005772 0.408464 0.079611
v -0.042320 0.239057 0.160491
v -0.091660 0.131421 0.170606
v -0.086140 0.061650 0.185616
v -0.181563 -0.121667 0.137469
v -0.039075 -0.250907 -0.225042
v -0.061894 0.295867 0.130849
v -0.181286 -0.051855 0.130223
v -0.166870 -0.051855 0.147500
v -0.108668 0.256035 0.120046
v -0.144311 0.134396 0.130245
v -0.161091 0.014160 0.140554
v -0.121663 0.309304 0.068179
v -0.104850 0.309304 0.090057
v -0.225452 -0.093727 0.029607
v 0.196933 -0.265733 -0.114954
v -0.001177 -2.044696 -0.004402
v -0.188863 0.110541 0.068437
v -0.202818 0.035200 0.071463
v 0.224634 -0.280909 -0.030286
v -0.197734 0.134826 0.025731
v -0.103415 0.373901 0.017157
v -0.116827 0.350898 0.035255
v -0.179235 0.205553 0.022260
v 0.150536 -0.264378 0.163422
v -0.074537 0.414048 -0.004375
v -0.161718 0.269110 -0.006327
v -0.186656 0.117336 -0.077356
v -0.210227 -0.082449 -0.094276
v -0.160849 0.233852 -0.059727
v -0.148740 -0.153457 -0.183070
v -0.158771 -0.083645 -0.168377
vn 0.5334 -0.0385 0.8450
vn -0.1462 -0.0889 -0.9853
vn 0.9838 0.1724 -0.0493
vn -0.0855 0.0305 -0.9959
vn -0.1853 0.1361 0.9732
vn -0.5337 0.7088 0.4613
vn -0.8018 0.2523 -0.5417
vn 0.5833 0.1450 -0.7992
vn 0.8418 0.0462 0.5378
vn 0.9074 0.2763 0.3166
vn 0.5304 0.4058 -0.7443
vn 0.6874 -0.1027 0.7189
vn -0.5849 0.7064 -0.3987
vn 0.9661 -0.1069 0.2349
vn 0.9044 0.2912 0.3118
vn 0.9794 0.1502 0.1352
vn 0.5464 0.5434 -0.6373
vn 0.1877 0.2780 0.9421
vn -0.2758 0.2512 -0.9278
vn -0.2781 0.1402 0.9503
vn -0.7776 -0.0970 0.6213
vn 0.9510 0.3008 0.0714
vn -0.4037 0.8917 -0.2048
vn -0.9581 0.0527 -0.2816
vn 0.5880 0.0994 -0.8027
vn -0.5107 -0.1128 -0.8523
vn -0.0899 0.2532 0.9632
vn -0.1245 0.4236 0.8972
vn 0.8375 0.5387 -0.0918
vn 0.6464 0.3297 0.6881
vn -0.8503 0.1191 0.5126
vn 0.9411 0.2687 -0.2052
vn -0.8964 0.4117 0.1641
vn -0.9189 0.3006 0.2555
vn 0.9236 0.1634 0.3468
vn -0.3604 0.7119 0.6028
vn -0.9648 0.2630 -0.0049
vn -0.5978 0.6826 0.4203
vn -0.6817 0.5908 0.4315
vn 0.8909 0.3648 -0.2705
vn 0.8992 -0.3549 0.2560
vn -0.2806 -0.1123 0.9532
vn 0.7529 0.1119 -0.6486
vn -0.4321 0.7935 0.4284
vn -0.8184 0.2764 0.5038
vn -0.8341 -0.1370 0.5343
vn -0.8674 0.0998 0.4874
vn -0.9584 -0.1046 0.2654
vn 0.8439 -0.0887 0.5291
vn 0.2767 -0.0841 0.9573
vn 0.6570 0.5627 0.5018
vn -0.9902 -0.1372 0.0264
vn -0.1040 -0.1377 -0.9850
vn 0.9947 0.1020 -0.0147
vn -0.1106 0.0508 0.9926
vn 0.6167 0.4417 -0.6516
vn -0.9166 -0.0657 0.3943
vn 0.6894 0.6919 -0.2145
vn -0.6696 0.0577 0.7405
vn 0.7117 0.6215 0.3274
vn 0.2079 0.1738 -0.9626
vn -0.5885 -0.0283 0.8080
vn -0.3192 0.3519 0.8799
vn -0.4152 -0.1194 0.9019
vn 0.8666 0.2251 -0.4453
vn 0.9830 -0.1365 -0.1225
vn 0.7398 -0.0987 -0.6655
vn 0.7637 0.1724 0.6221
vn 0.3207 0.4180 0.8500
vn 0.9903 -0.1044 -0.0916
vn -0.3993 0.1917 0.8965
vn -0.2893 0.1456 0.9461
vn -0.8747 -0.1022 -0.4738
vn -0.9274 0.2566 -0.2722
vn 0.7637 0.1473 -0.6285
vn -0.8603 -0.1367 -0.4912
vn -0.7613 0.6129 -0.2117
vn -0.6439 0.5460 -0.5361
vn 0.8842 0.3954 0.2486
vn 0.0775 0.3806 0.9215
vn -0.8601 0.5022 -0.0892
vn 0.9306 0.0967 -0.3531
vn 0.7751 0.3530 -0.5241
vn -0.7295 0.0591 -0.6814
vn 0.6641 0.6798 -0.3112
vn -0.8903 0.3560 0.2840
vn 0.6108 0.2674 -0.7452
vn -0.8570 0.4978 -0.1334
vn -0.6713 0.1126 0.7326
vn 0.0878 0.1598 -0.9832
vn -0.9497 0.1657 0.2658
vn -0.6254 0.4535 0.6350
vn -0.3417 0.8162 -0.4658
vn 0.2868 -0.1043 0.9523
vn 0.1428 0.9896 0.0160
vn 0.2429 0.9138 -0.3256
vn 0.1612 0.8525 -0.4973
vn -0.9290 -0.1125 -0.3526
vn 0.3946 0.1638 -0.9041
vn 0.9297 0.1024 0.3538
vn 0.5853 -0.1116 0.8031
vn 0.5142 0.6505 0.5589
vn 0.7795 0.4017 0.4807
vn -0.9938 0.1053 0.0352
vn 0.3206 0.7904 0.5220
vn 0.3086 0.8784 0.3649
vn 0.7399 0.0578 0.6702
vn 0.6386 -0.1390 -0.7569
vn 0.1727 0.0436 -0.9840
vn -0.6603 0.3484 -0.6654
vn 0.2607 -0.1395 -0.9553
vn -0.9224 0.2804 -0.2657
vn 0.0632 0.4415 -0.8951
vn 0.7056 -0.1350 0.6957
vn -0.2066 0.2588 -0.9436
vn -0.4823 0.4593 -0.7459
vn -0.2703 0.3737 -0.8873
vn -0.8652 0.0821 0.4947
vn -0.5009 0.1206 -0.8570
vn 0.0550 0.5166 0.8544
vn -0.4256 0.0959 -0.8998
vn 0.2984 0.4652 -0.8334
vn -0.6897 -0.0131 0.7240
vn -0.6959 -0.1054 0.7104
vn 0.9398 0.0100 -0.3417
vn -0.9992 -0.0159 -0.0378
vn 0.9754 0.1123 0.1895
vn 0.9592 0.1825 0.2161
vn 0.5320 -0.0231 -0.8464
vn -0.0897 0.1747 -0.9805
vn -0.2759 0.2081 -0.9384
vn 0.0907 -0.0919 0.9916
vn -0.6146 0.4912 0.6172
vn 0.7547 -0.1848 -0.6296
vn -0.7641 0.0989 0.6375
vn -0.5007 -0.7580 0.4179
vn -0.7565 0.1703 0.6314
vn -0.8497 0.1528 0.5046
vn 0.9538 -0.0395 -0.2979
vn 0.9988 -0.0039 0.0482
vn 0.3769 0.1148 0.9191
vn -0.2637 0.0306 -0.9641
vn -0.7293 -0.0877 -0.6785
vn 0.9679 -0.0998 -0.2306
vn -0.6252 0.2178 -0.7494
vn 0.6401 0.0406 0.7672
vn 0.6052 -0.3277 0.7255
vn -0.6375 0.0989 -0.7641
vn -0.6231 0.1749 0.7624
vn 0.9816 0.0567 -0.1826
vn -0.7152 0.5553 -0.4243
vn 0.8294 0.2644 0.4921
vn 0.7977 0.4191 0.4336
vn -0.8114 0.4051 -0.4214
vn 0.8785 0.1267 0.4605
vn -0.1722 0.5648 -0.8071
vn 0.6540 0.1922 0.7317
vn 0.4327 -0.0985 -0.8961
vn -0.4708 0.4956 0.7299
vn 0.9386 -0.1107 0.3268
vn 0.6861 0.2491 -0.6835
vn 0.8775 -0.1303 -0.4615
vn -0.9741 -0.0910 -0.2070
vn -0.9959 -0.0053 -0.0898
vn -0.8648 0.4958 0.0791
vn -0.6219 0.3656 0.6925
vn 0.5372 0.8082 0.2413
vn -0.9886 -0.0959 0.1163
vn -0.0991 0.8598 0.5010
vn -0.6441 0.7235 0.2483
vn -0.8338 0.5245 0.1720
vn -0.7676 0.4021 0.4992
vn -0.5680 0.2665 -0.7787
vn -0.5750 0.7573 0.3097
vn 0.3950 0.5138 0.7616
vn 0.4158 0.3232 -0.8501
vn -0.9884 0.0758 0.1314
vn -0.0750 -0.5668 -0.8204
vn -0.4436 0.2941 0.8466
vn 0.3814 0.2556 0.8884
vn 0.8513 0.5246 -0.0098
vn 0.1418 0.2798 -0.9495
vn 0.0833 -0.4042 0.9109
vn -0.0881 0.2554 -0.9628
vn 0.9768 0.0920 -0.1935
vn 0.4924 0.1179 0.8624
vn 0.4069 0.0830 -0.9097
vn -0.8319 0.1450 -0.5356
vn -0.5779 0.3525 0.7361
vn -0.0278 -0.0039 0.9996
vn -0.6101 -0.3047 -0.7314
vn 0.6375 0.0989 0.7641
vn -0.6401 0.0407 -0.7672
vn 0.8724 -0.0452 -0.4867
vn 0.6379 0.0911 0.7647
vn -0.8481 0.4277 -0.3128
vn -0.5454 0.6161 -0.5683
vn 0.1641 0.2607 0.9514
vn -0.2861 -0.0313 0.9577
vn -0.8444 0.5355 0.0162
vn -0.9761 -0.0817 0.2013
vn -0.2373 0.1465 -0.9603
vn -0.9396 -0.3318 -0.0847
vn 0.9814 0.1703 0.0885
vn 0.8684 0.1026 -0.4852
vn -0.0012 0.7203 -0.6936
vn -0.6044 0.1474 0.7829
vn 0.8495 0.2554 0.4617
vn 0.8597 0.0286 0.5100
vn 0.8005 0.3656 0.4749
vn -0.1743 0.9272 -0.3316
vn -0.2035 0.8092 -0.5512
vn -0.2280 0.9324 -0.2804
vn 0.0048 0.9994 0.0352
vn 0.2485 0.9596 -0.1319
vn 0.2581 0.7021 -0.6636
vn -0.7129 0.1618 -0.6824
vn 0.6075 -0.7716 0.1889
vn 0.2510 0.8383 0.4839
vn 0.5799 0.6712 0.4618
vn 0.8203 0.5119 -0.2552
vn 0.3934 0.8401 0.3735
vn 0.4492 0.8736 0.1871
vn -0.7640 0.0988 0.6376
vn 0.7042 0.3986 -0.5875
vn -0.7672 0.0406 0.6401
vn -0.9791 0.1465 -0.1412
vn 0.4586 -0.1566 -0.8748
vn -0.9571 0.1290 -0.2594
vn -0.4975 -0.1016 -0.8615
vn 0.7665 -0.0577 -0.6397
vn -0.5178 0.3394 -0.7853
vn 0.2077 -0.0871 -0.9743
vn -0.4359 0.2895 -0.8522
vn -0.4274 0.0728 0.9012
vn 0.2209 0.5600 -0.7985
vn 0.6025 -0.2819 -0.7467
vn 0.2066 0.1118 0.9720
usemtl None
s off
f 25//1 156//1 253//1 91//1
f 110//2 234//2 108//2 18//2
f 81//3 203//3 78//3 12//3
f 58//4 29//4 108//4 234//4 54//4 185//4
f 112//5 223//5 111//5 16//5 42//5
f 164//6 159//6 14//6
f 167//7 258//7 179//7 47//7 35//7 256//7 171//7
f 30//8 65//8 193//8 64//8
f 5//9 168//9 205//9 87//9 93//9
f 98//10 208//10 92//10 7//10
f 66//11 195//11 11//11 71//11
f 39//12 253//12 156//12
f 50//13 183//13 53//13 27//13
f 138//14 46//14 104//14 37//14
f 102//15 94//15 7//15 216//15
f 7//16 211//16 98//16
f 17//17 66//17 194//17 76//17
f 4//18 117//18 226//18 115//18
f 57//19 2//19 49//19
f 42//20 16//20 129//20 120//20
f 175//21 217//21 45//21
f 202//22 77//22 7//22 92//22 203//22
f 159//23 164//23 32//23 52//23
f 257//24 125//24 8//24
f 9//25 30//25 64//25 192//25 61//25 150//25
f 132//26 6//26 177//26 245//26 178//26
f 128//27 230//27 123//27 16//27 222//27 119//27 115//27 226//27
f 15//28 135//28 235//28 230//28 128//28
f 17//29 83//29 207//29 84//29
f 102//30 100//30 215//30 109//30 218//30 219//30 106//30 31//30 210//30
f 13//31 252//31 155//31
f 202//32 203//32 81//32 73//32 10//32 80//32
f 13//33 241//33 158//33
f 155//34 249//34 151//34 13//34
f 208//35 93//35 87//35 28//35 92//35
f 122//36 164//36 14//36
f 172//37 20//37 148//37 249//37 155//37 252//37 154//37 255//37
f 159//38 163//38 14//38
f 153//39 251//39 158//39 14//39 163//39
f 77//40 202//40 80//40 17//40 84//40 201//40
f 14//41 242//41 145//41
f 121//42 170//42 112//42 42//42 176//42 245//42
f 44//43 150//43 61//43
f 135//44 122//44 14//44
f 238//45 145//45 142//45 241//45 13//45 151//45 246//45 239//45
f 166//46 245//46 144//46 45//46
f 247//47 143//47 3//47
f 24//48 166//48 85//48
f 5//49 91//49 253//49 39//49 118//49 168//49
f 121//50 105//50 21//50 170//50
f 116//51 218//51 109//51 101//51 36//51
f 169//52 245//52 166//52 24//52
f 86//53 245//53 177//53 18//53
f 75//54 12//54 204//54 82//54 199//54 74//54 200//54
f 16//55 232//55 129//55
f 17//56 195//56 66//56
f 221//57 85//57 166//57 45//57 217//57 113//57 3//57 143//57 243//57
f 17//58 206//58 83//58
f 133//59 113//59 38//59 237//59
f 101//60 207//60 83//60 89//60 36//60
f 60//61 19//61 62//61 189//61
f 38//62 113//62 217//62 175//62
f 235//63 139//63 23//63 123//63 230//63
f 214//64 175//64 144//64 245//64 176//64
f 68//65 196//65 67//65 80//65 10//65 73//65 197//65
f 104//66 245//66 140//66 37//66
f 136//67 244//67 134//67 96//67 40//67 9//67 150//67
f 93//68 208//68 98//68 94//68 31//68 212//68 95//68 5//68
f 218//69 116//69 114//69 15//69 117//69 219//69
f 37//70 248//70 138//70
f 23//71 231//71 123//71
f 16//72 123//72 231//72 124//72
f 90//73 224//73 34//73
f 167//74 171//74 20//74
f 196//75 68//75 44//75 192//75 64//75 193//75
f 178//76 245//76 169//76 34//76
f 163//77 52//77 27//77
f 52//78 50//78 27//78
f 7//79 201//79 84//79 207//79 101//79 215//79 100//79
f 128//80 226//80 117//80 15//80
f 27//81 250//81 163//81
f 69//82 22//82 72//82
f 17//83 80//83 67//83 195//83
f 26//84 260//84 174//84 132//84
f 76//85 198//85 89//85 17//85
f 165//86 255//86 154//86 13//86 158//86 251//86
f 30//87 189//87 62//87
f 255//88 165//88 153//88 27//88 172//88
f 38//89 240//89 141//89 131//89
f 58//90 185//90 51//90 19//90 60//90 188//90
f 146//91 246//91 151//91 249//91 148//91 1//91 143//91 247//91
f 145//92 238//92 139//92 14//92
f 32//93 182//93 52//93
f 126//94 156//94 25//94 105//94 121//94 245//94
f 32//95 228//95 130//95
f 32//96 198//96 76//96
f 76//97 70//97 32//97
f 34//98 169//98 90//98
f 62//99 191//99 65//99 30//99
f 87//100 205//100 79//100 28//100
f 39//101 156//101 126//101
f 127//102 114//102 36//102
f 36//103 225//103 116//103
f 1//104 148//104 149//104 152//104
f 36//105 228//105 122//105
f 122//106 127//106 36//106
f 99//107 91//107 5//107 213//107
f 96//108 245//108 97//108 40//108
f 58//109 188//109 147//109 29//109
f 179//110 53//110 41//110 47//110
f 97//111 245//111 86//111 33//111
f 20//112 172//112 258//112 167//112
f 63//113 186//113 59//113 43//113
f 126//114 245//114 118//114 39//114
f 57//115 186//115 55//115 2//115
f 53//116 59//116 41//116
f 186//117 57//117 41//117 59//117
f 133//118 131//118 3//118 233//118
f 48//119 181//119 6//119 259//119 174//119 173//119
f 15//120 114//120 127//120 229//120 135//120
f 48//121 180//121 49//121 2//121 54//121
f 71//122 190//122 63//122 43//122 194//122 66//122
f 214//123 107//123 38//123 175//123
f 45//124 144//124 175//124
f 136//125 150//125 44//125
f 8//126 88//126 221//126 243//126 152//126 149//126
f 28//127 79//127 200//127 74//127
f 82//128 78//128 203//128 92//128 28//128 199//128
f 157//129 244//129 136//129 44//129
f 56//130 184//130 51//130
f 54//131 181//131 48//131
f 2//132 55//132 187//132
f 142//133 242//133 14//133 158//133
f 3//134 113//134 233//134
f 133//135 237//135 131//135
f 3//136 131//136 236//136
f 141//137 240//137 137//137
f 141//138 137//138 239//138 246//138 146//138 3//138 236//138
f 3//139 146//139 247//139
f 75//140 200//140 79//140 46//140 138//140 248//140 162//140
f 4//141 105//141 25//141 103//141
f 181//142 54//142 234//142 110//142 6//142
f 34//143 224//143 125//143 26//143 132//143 178//143
f 134//144 22//144 162//144 248//144 37//144 140//144
f 5//145 95//145 213//145
f 99//146 209//146 91//146
f 6//147 132//147 259//147
f 174//148 260//148 173//148
f 239//149 137//149 38//149 23//149 238//149
f 7//150 77//150 201//150
f 7//151 100//151 216//151
f 102//152 210//152 94//152
f 7//153 94//153 211//153
f 172//154 27//154 53//154 179//154 258//154
f 8//155 161//155 257//155
f 50//156 182//156 70//156 43//156
f 212//157 31//157 220//157 103//157
f 40//158 97//158 33//158 147//158 9//158
f 14//159 139//159 235//159 135//159
f 168//160 118//160 245//160 104//160 46//160 79//160 205//160
f 67//161 196//161 193//161 65//161 11//161 195//161
f 140//162 245//162 96//162 134//162
f 8//163 125//163 224//163 90//163 169//163 24//163 88//163
f 12//164 78//164 204//164
f 13//165 154//165 252//165
f 145//166 242//166 142//166
f 36//167 89//167 198//167 130//167
f 85//168 221//168 88//168 24//168
f 122//169 228//169 164//169
f 159//170 254//170 163//170
f 163//171 250//171 153//171
f 158//172 241//172 142//172
f 49//173 180//173 47//173 41//173
f 135//174 229//174 122//174
f 116//175 225//175 114//175
f 11//176 65//176 191//176 190//176 71//176
f 152//177 243//177 143//177 1//177
f 16//178 111//178 222//178
f 16//179 124//179 232//179
f 106//180 219//180 117//180 4//180 103//180 220//180
f 17//181 89//181 206//181
f 55//182 186//182 63//182 190//182 191//182 62//182 19//182 184//182 56//182
f 19//183 51//183 184//183
f 56//184 187//184 55//184
f 69//185 197//185 73//185 81//185 12//185 75//185 162//185 22//185
f 103//186 25//186 209//186 99//186 95//186 212//186
f 188//187 60//187 189//187 30//187 9//187 147//187
f 26//188 125//188 257//188 161//188 160//188 35//188
f 23//189 139//189 238//189
f 21//190 223//190 112//190 170//190
f 25//191 91//191 209//191
f 99//192 213//192 95//192
f 174//193 259//193 132//193
f 22//194 134//194 244//194 157//194
f 26//195 173//195 260//195
f 163//196 254//196 52//196
f 52//197 182//197 50//197
f 115//198 119//198 4//198
f 42//199 107//199 214//199 176//199
f 165//200 251//200 153//200
f 27//201 153//201 250//201
f 2//202 187//202 56//202 51//202 185//202 54//202
f 28//203 74//203 199//203
f 82//204 204//204 78//204
f 72//205 22//205 157//205 44//205 68//205 197//205 69//205
f 59//206 183//206 50//206 43//206
f 124//207 231//207 23//207 38//207 227//207 120//207 129//207 232//207
f 98//208 211//208 94//208
f 31//209 94//209 210//209
f 102//210 216//210 100//210
f 31//211 106//211 220//211
f 32//212 70//212 182//212
f 52//213 254//213 159//213
f 32//214 164//214 228//214
f 32//215 130//215 198//215
f 76//216 194//216 70//216
f 35//217 47//217 180//217 48//217 173//217 26//217
f 35//218 160//218 256//218
f 36//219 114//219 225//219
f 109//220 215//220 101//220
f 83//221 206//221 89//221
f 36//222 130//222 228//222
f 122//223 229//223 127//223
f 141//224 236//224 131//224
f 38//225 131//225 237//225
f 133//226 233//226 113//226
f 148//227 20//227 149//227
f 38//228 107//228 227//228
f 160//229 161//229 8//229 149//229 20//229 171//229 256//229
f 177//230 6//230 110//230 18//230
f 38//231 137//231 240//231
f 53//232 183//232 59//232
f 108//233 29//233 147//233 33//233 86//233 18//233
f 49//234 41//234 57//234
f 107//235 42//235 120//235 227//235
f 43//236 70//236 194//236
f 44//237 61//237 192//237
f 111//238 223//238 21//238 105//238 4//238 119//238 222//238
